<svg id="Group_26" data-name="Group 26" xmlns="http://www.w3.org/2000/svg" xmlns:xlink="http://www.w3.org/1999/xlink" width="25.002" height="30.033" viewBox="0 0 25.002 30.033">
  <defs>
    <clipPath id="clip-path">
      <rect id="Rectangle_18" data-name="Rectangle 18" width="25.002" height="30.033" fill="none"/>
    </clipPath>
    <clipPath id="clip-path-2">
      <path id="Path_37" data-name="Path 37" d="M330.148,0h-.027a2.871,2.871,0,0,0-2.362,1.4,3.292,3.292,0,0,0-.441,1.222,6.137,6.137,0,0,0-.069.745h5.776a6.125,6.125,0,0,0-.069-.745,3.292,3.292,0,0,0-.441-1.222A2.871,2.871,0,0,0,330.151,0Z" transform="translate(-327.248 -0.001)" fill="none"/>
    </clipPath>
    <linearGradient id="linear-gradient" x1="-1.594" y1="8.918" x2="-1.589" y2="8.918" gradientUnits="objectBoundingBox">
      <stop offset="0" stop-color="#f2b446"/>
      <stop offset="0.38" stop-color="#f4b140"/>
      <stop offset="0.855" stop-color="#fca931"/>
      <stop offset="1" stop-color="#ffa62b"/>
    </linearGradient>
    <clipPath id="clip-path-3">
      <path id="Path_38" data-name="Path 38" d="M65.894,88.162a10.533,10.533,0,0,0-1.412,3.909c-.854,5.641,1.136,6.275-1.3,11.407H83.819a17.3,17.3,0,0,1-.718-1.725c-1.268-3.643.164-4.743-.584-9.682a10.533,10.533,0,0,0-1.412-3.909q-.138-.226-.282-.437A9.157,9.157,0,0,0,73.5,83.682h-.043a9.185,9.185,0,0,0-7.563,4.48" transform="translate(-63.18 -83.682)" fill="none"/>
    </clipPath>
    <linearGradient id="linear-gradient-2" x1="-0.086" y1="1.396" x2="-0.085" y2="1.396" gradientUnits="objectBoundingBox">
      <stop offset="0" stop-color="#ffa62b"/>
      <stop offset="0.353" stop-color="#ffbb14"/>
      <stop offset="0.713" stop-color="#ffca05"/>
      <stop offset="1" stop-color="#ffd000"/>
    </linearGradient>
    <clipPath id="clip-path-5">
      <rect id="Rectangle_14" data-name="Rectangle 14" width="8.34" height="19.72" fill="none"/>
    </clipPath>
    <clipPath id="clip-path-6">
      <path id="Path_42" data-name="Path 42" d="M281.372,918.695a4.179,4.179,0,1,0,8.358,0Z" transform="translate(-281.372 -918.695)" fill="none"/>
    </clipPath>
    <linearGradient id="linear-gradient-3" x1="-0.947" y1="1" x2="-0.944" y2="1" gradientUnits="objectBoundingBox">
      <stop offset="0" stop-color="#f29550"/>
      <stop offset="0.273" stop-color="#f1924c"/>
      <stop offset="0.482" stop-color="#ee8c43"/>
      <stop offset="0.669" stop-color="#e88032"/>
      <stop offset="0.842" stop-color="#e1701c"/>
      <stop offset="1" stop-color="#d95d00"/>
    </linearGradient>
  </defs>
  <g id="Group_25" data-name="Group 25" clip-path="url(#clip-path)">
    <g id="Group_13" data-name="Group 13" transform="translate(9.209 0)">
      <g id="Group_12" data-name="Group 12" clip-path="url(#clip-path-2)">
        <rect id="Rectangle_12" data-name="Rectangle 12" width="5.776" height="3.368" transform="translate(0 0)" fill="url(#linear-gradient)"/>
      </g>
    </g>
    <g id="Group_15" data-name="Group 15" transform="translate(1.778 2.355)">
      <g id="Group_14" data-name="Group 14" clip-path="url(#clip-path-3)">
        <rect id="Rectangle_13" data-name="Rectangle 13" width="20.639" height="19.923" transform="translate(0 -0.126)" fill="url(#linear-gradient-2)"/>
      </g>
    </g>
    <g id="Group_20" data-name="Group 20" transform="translate(0 0)">
      <g id="Group_19" data-name="Group 19" clip-path="url(#clip-path)">
        <g id="Group_18" data-name="Group 18" transform="translate(2.878 2.432)" style="mix-blend-mode: screen;isolation: isolate">
          <g id="Group_17" data-name="Group 17">
            <g id="Group_16" data-name="Group 16" clip-path="url(#clip-path-5)">
              <path id="Path_39" data-name="Path 39" d="M105.783,94.169a11.909,11.909,0,0,1,1.322-4.1,9.068,9.068,0,0,1,3.508-3.666,8.18,8.18,0,0,0-5.916,4.4,11.362,11.362,0,0,0-1.261,3.909c-.763,5.641,1.015,6.275-1.163,11.407h2.292c2.283-5.379.42-6.043,1.219-11.956" transform="translate(-102.272 -86.405)" fill="#414042"/>
            </g>
          </g>
        </g>
        <path id="Path_40" data-name="Path 40" d="M23.055,790.83H1.14A1.14,1.14,0,0,1,0,789.689v-1.422a1.14,1.14,0,0,1,1.14-1.14H23.055a1.14,1.14,0,0,1,1.14,1.14v1.422a1.14,1.14,0,0,1-1.14,1.14" transform="translate(0 -764.975)" fill="#f99026"/>
      </g>
    </g>
    <g id="Group_22" data-name="Group 22" transform="translate(7.918 25.854)">
      <g id="Group_21" data-name="Group 21" clip-path="url(#clip-path-6)">
        <rect id="Rectangle_16" data-name="Rectangle 16" width="8.358" height="4.179" transform="translate(0 0)" fill="url(#linear-gradient-3)"/>
      </g>
    </g>
  </g>
</svg>
